<?xml version="1.0" standalone="no"?>
<!DOCTYPE svg PUBLIC "-//W3C//DTD SVG 20010904//EN"
 "http://www.w3.org/TR/2001/REC-SVG-20010904/DTD/svg10.dtd">
<svg version="1.0" xmlns="http://www.w3.org/2000/svg"
 width="1024.000000pt" height="768.000000pt" viewBox="0 0 1024.000000 768.000000"
 preserveAspectRatio="xMidYMid meet">

<g transform="translate(0.000000,768.000000) scale(0.100000,-0.100000)"
fill="#000000" stroke="none">
<path d="M0 3840 l0 -3840 5120 0 5120 0 0 3840 0 3840 -1430 0 -1430 0 0 -40
c0 -33 -3 -40 -19 -40 -16 0 -21 8 -24 43 -2 23 -4 3 -5 -44 -2 -69 1 -88 13
-93 8 -3 15 -15 15 -26 0 -11 -7 -23 -15 -26 -10 -4 -15 -20 -15 -50 0 -24 -4
-44 -10 -44 -5 0 -10 -18 -10 -40 0 -22 5 -40 10 -40 6 0 10 -18 10 -40 0 -36
-3 -40 -25 -40 -19 0 -26 -6 -30 -27 -4 -16 -10 -36 -16 -45 -5 -10 -9 -34 -9
-53 0 -31 -3 -35 -25 -35 -20 0 -25 -5 -25 -24 0 -13 -7 -29 -15 -36 -8 -7
-15 -18 -15 -25 0 -8 -11 -22 -25 -33 -32 -25 -32 -42 0 -42 14 0 25 -4 25 -9
0 -5 -11 -18 -25 -29 -29 -23 -32 -39 -8 -44 15 -3 15 -4 0 -17 -15 -12 -17
-11 -17 3 0 31 -30 16 -46 -24 -16 -41 -34 -53 -34 -24 0 13 -3 14 -14 5 -8
-7 -12 -20 -9 -31 4 -14 -1 -21 -20 -25 -14 -4 -31 -4 -38 0 -7 5 -10 3 -7 -6
3 -8 13 -16 23 -18 10 -2 25 -9 33 -17 7 -8 20 -14 28 -14 8 0 14 -4 14 -9 0
-5 3 -16 6 -25 3 -9 1 -16 -5 -16 -6 0 -11 7 -11 15 0 9 -6 12 -16 8 -9 -3
-19 -1 -23 5 -8 14 -420 223 -493 250 -97 37 -94 34 37 -35 171 -89 331 -186
316 -191 -6 -2 -18 1 -26 8 -17 14 -241 123 -380 185 -16 8 -68 31 -115 52
-47 22 -105 45 -130 53 -25 7 -49 17 -55 21 -29 21 -249 86 -440 129 -49 12
-106 25 -125 30 -80 19 -139 29 -205 35 -38 3 -83 8 -100 11 -16 3 -111 7
-210 10 -270 9 -510 -17 -789 -85 -399 -97 -739 -252 -1061 -482 -95 -68 -235
-186 -235 -198 0 -5 51 -16 113 -25 61 -9 222 -32 357 -51 135 -19 265 -39
290 -44 60 -12 12 -13 -70 -2 -36 5 -101 12 -145 15 -95 6 -63 -1 150 -34 176
-27 307 -52 301 -57 -2 -2 -102 9 -222 26 -348 48 -456 63 -499 68 -22 2 -96
13 -165 24 -69 11 -164 23 -212 26 -49 3 -88 10 -88 14 0 5 14 9 31 9 16 0 28
4 25 9 -6 8 -72 6 -135 -4 -40 -7 -101 -35 -101 -47 0 -4 -6 -8 -14 -8 -8 0
-33 -21 -55 -46 -23 -26 -41 -42 -41 -37 0 18 113 129 150 148 72 37 120 43
208 27 l81 -14 118 99 c249 209 360 283 665 438 97 50 175 91 173 93 -3 4 -78
-26 -164 -65 -30 -13 -67 -27 -82 -30 -16 -3 -29 -9 -29 -14 0 -5 -7 -9 -15
-9 -22 0 -252 -121 -362 -191 -53 -33 -98 -58 -100 -55 -11 11 414 286 443
286 8 0 14 4 14 10 0 13 -32 0 -98 -39 -30 -17 -68 -38 -85 -46 -18 -8 -50
-26 -72 -39 -22 -14 -58 -35 -80 -47 -22 -12 -66 -39 -97 -60 -32 -22 -60 -39
-64 -39 -3 0 -17 -9 -31 -20 -28 -22 -43 -25 -43 -10 0 6 6 10 14 10 16 0 29
27 20 42 -4 6 4 8 22 6 16 -3 23 -3 17 -1 -8 3 -13 21 -13 44 0 37 -2 39 -30
39 l-30 0 0 65 0 65 -40 0 c-29 0 -40 4 -40 15 0 8 -7 15 -15 15 -11 0 -15 11
-15 36 0 27 -7 41 -25 56 -23 18 -25 27 -26 96 0 42 -3 71 -6 65 -2 -7 -12
-13 -21 -13 -20 0 -52 80 -52 129 0 21 -5 31 -15 31 -12 0 -15 16 -15 80 0 79
0 80 -25 80 -14 0 -25 5 -25 10 0 6 9 10 20 10 27 0 25 16 -2 25 -20 6 -17 8
22 20 31 9 38 13 21 14 -14 1 -33 8 -43 18 -17 15 -18 15 -18 0 0 -10 -7 -17
-15 -17 -11 0 -15 11 -15 40 l0 40 -1345 0 -1345 0 0 -3840z m7292 3310 c3
-16 1 -30 -4 -30 -4 0 -8 14 -8 30 0 17 2 30 4 30 2 0 6 -13 8 -30z m48 -20
c0 -5 -5 -10 -11 -10 -5 0 -7 5 -4 10 3 6 8 10 11 10 2 0 4 -4 4 -10z m-2394
-86 c90 -26 218 -85 289 -134 31 -21 60 -30 135 -39 205 -27 763 -114 905
-142 175 -34 255 -68 317 -132 88 -90 114 -178 126 -425 7 -131 6 -145 -10
-153 -19 -10 -26 5 -8 16 12 7 14 88 3 99 -5 4 -7 35 -6 69 l2 62 -14 -62 c-9
-43 -11 -73 -5 -94 13 -44 2 -114 -26 -176 -13 -28 -24 -63 -24 -77 0 -14 -4
-27 -9 -31 -14 -8 -54 -143 -47 -160 3 -8 1 -17 -4 -20 -5 -3 -7 -12 -3 -20 3
-8 -1 -15 -8 -15 -7 0 -9 -3 -6 -6 4 -4 -3 -15 -14 -25 -12 -11 -18 -23 -13
-30 5 -9 2 -10 -9 -6 -11 4 -17 1 -17 -8 0 -8 -19 -24 -42 -36 -76 -38 -103
-75 -128 -176 -17 -64 -38 -77 -39 -25 -1 67 -1 137 2 162 2 23 -2 25 -63 33
-36 4 -126 17 -200 27 -241 35 -704 100 -712 100 -5 0 -8 5 -8 11 0 6 20 9 54
6 30 -2 60 -1 67 4 9 5 9 9 3 9 -20 0 -25 43 -6 60 42 38 97 64 146 67 55 3
251 -18 386 -42 106 -19 193 -19 228 -1 42 22 89 79 107 131 20 60 14 67 -15
19 -37 -59 -72 -74 -172 -74 -48 0 -133 9 -190 19 -57 11 -125 22 -153 26 -27
3 -84 13 -125 22 -41 8 -86 16 -100 18 -27 2 -27 2 -4 46 26 51 8 44 -30 -13
-47 -69 -62 -86 -118 -132 -30 -24 -54 -36 -64 -32 -8 3 -25 1 -37 -6 -46 -24
-184 -47 -287 -48 -104 0 -106 -1 -175 -41 -77 -44 -233 -142 -252 -159 -14
-11 -125 -62 -129 -58 -1 2 8 63 22 137 13 74 27 174 30 222 l7 86 -45 31
c-119 82 -215 227 -257 387 -6 22 -11 95 -11 163 0 72 -4 121 -9 118 -10 -6
-7 5 30 114 52 154 179 277 340 328 35 12 71 23 79 26 8 2 63 5 121 5 86 1
124 -4 195 -25z m-1891 -341 c-2 -10 -4 -20 -4 -23 -2 -7 -21 23 -21 33 0 4 6
7 14 7 8 0 13 -8 11 -17z m70 -63 c-3 -5 -12 -10 -18 -10 -7 0 -6 4 3 10 19
12 23 12 15 0z m3770 -20 c3 -5 1 -10 -4 -10 -6 0 -11 5 -11 10 0 6 2 10 4 10
3 0 8 -4 11 -10z m199 -32 c-4 -6 1 -17 11 -25 16 -11 17 -13 3 -13 -9 0 -20
5 -23 10 -7 12 0 40 10 40 4 0 3 -5 -1 -12z m-4163 -31 c-10 -9 -11 -8 -5 6 3
10 9 15 12 12 3 -3 0 -11 -7 -18z m969 -2 c6 -4 42 -9 78 -12 37 -2 80 -11 96
-19 36 -17 36 -17 36 2 0 8 5 12 10 9 6 -3 10 -15 10 -25 0 -26 -31 -33 -126
-26 -263 19 -370 17 -559 -11 l-40 -6 25 22 c19 16 21 19 6 14 -13 -4 -17 -3
-12 5 4 7 19 9 36 5 23 -4 30 -2 30 9 0 10 15 18 43 22 23 4 60 11 82 16 45
10 268 6 285 -5z m-990 -14 c0 -5 -7 -12 -16 -15 -14 -5 -15 -4 -4 9 14 17 20
19 20 6z m-86 -85 c-3 -9 -12 -16 -20 -16 -11 0 -10 4 4 18 20 22 25 21 16 -2z
m4513 -62 c-3 -3 -12 -4 -19 -1 -8 3 -5 6 6 6 11 1 17 -2 13 -5z m-3504 -131
c-7 -2 -19 -2 -25 0 -7 3 -2 5 12 5 14 0 19 -2 13 -5z m3245 -183 c76 -17 59
-22 -32 -9 -43 5 -92 7 -109 4 -46 -10 -109 -48 -157 -96 -36 -35 -41 -38 -35
-18 4 13 14 34 21 47 8 12 12 27 9 31 -4 8 40 33 95 55 22 8 146 0 208 -14z
m95 -27 c-7 -2 -19 -2 -25 0 -7 3 -2 5 12 5 14 0 19 -2 13 -5z m-3898 -27
c343 -46 486 -69 473 -79 -8 -5 -4 -6 10 -2 13 4 51 4 85 0 48 -6 57 -10 42
-17 -13 -5 -5 -6 25 -3 24 3 41 2 36 -2 -4 -4 14 -13 41 -19 l48 -12 -45 -1
c-50 -1 -198 18 -615 80 -154 22 -316 42 -360 44 -129 4 -135 5 -135 14 0 28
175 26 395 -3z m3595 -44 c0 -4 -9 -13 -20 -20 -23 -14 -26 -8 -7 13 13 16 27
19 27 7z m295 -179 c-14 -21 -25 -43 -25 -50 0 -7 -4 -13 -10 -13 -21 0 -9 43
19 71 40 40 47 36 16 -8z m-4320 -608 c100 -21 178 -52 275 -108 47 -28 86
-51 88 -53 2 -1 -17 -33 -42 -71 -25 -37 -46 -61 -46 -52 0 9 7 22 15 29 21
17 20 80 -1 80 -8 0 -12 -5 -8 -11 4 -8 0 -8 -15 0 -11 7 -21 19 -21 27 0 12
-7 15 -30 12 -18 -3 -31 0 -34 9 -3 7 -12 10 -21 7 -10 -4 -15 0 -15 11 0 13
-6 15 -29 10 -18 -4 -33 -1 -43 8 -19 20 -194 40 -306 36 -50 -2 -92 -3 -92
-1 0 1 10 7 23 12 21 8 21 9 -5 9 -16 1 -28 -3 -28 -8 0 -5 -9 -11 -20 -14
-11 -3 -18 -2 -16 2 2 3 -13 6 -34 6 -21 0 -36 -4 -33 -8 3 -5 -3 -6 -13 -3
-21 6 -109 -46 -97 -57 3 -4 -3 -7 -15 -7 -12 0 -39 -18 -62 -42 -22 -23 -40
-37 -40 -31 0 30 135 135 217 169 125 53 308 68 448 39z m787 -21 l36 -6 1
-112 c1 -146 12 -366 19 -366 3 0 29 11 57 25 70 33 126 44 211 45 237 1 391
-108 451 -317 13 -48 17 -126 20 -450 5 -377 4 -393 -14 -393 -10 0 -14 3 -7
8 6 4 10 56 10 132 0 88 -2 109 -6 70 -4 -30 -7 -42 -8 -27 -1 16 -9 36 -18
44 -14 15 -14 17 0 25 18 10 22 68 5 68 -7 0 -18 8 -25 18 -9 11 -13 13 -14 4
0 -7 -4 -10 -10 -7 -5 3 -10 1 -10 -4 0 -6 5 -11 12 -11 9 0 9 -3 0 -12 -18
-18 -32 6 -32 55 0 34 -2 37 -30 37 -28 0 -30 -3 -31 -37 -1 -21 -5 -49 -9
-63 l-8 -25 -2 25 c-2 18 -5 13 -13 -20 l-12 -45 -3 43 c-2 23 -7 42 -13 42
-5 0 -10 -19 -11 -42 -3 -97 -16 92 -17 257 -1 241 -28 324 -120 385 -67 45
-181 38 -239 -14 -12 -11 -35 -22 -50 -24 -34 -4 -42 -12 -14 -12 12 0 22 -4
22 -10 0 -5 -4 -10 -9 -10 -5 0 -13 -15 -17 -32 l-8 -33 -6 39 c-3 22 -10 41
-16 43 -8 3 -9 -10 -2 -47 5 -28 7 -66 5 -83 -3 -23 -4 -19 -5 16 -1 31 -6 46
-13 42 -6 -4 -8 -13 -5 -20 5 -13 -17 -28 -27 -19 -7 8 4 44 14 44 5 0 9 6 9
14 0 12 -28 29 -52 31 -3 0 -10 4 -15 9 -5 5 -3 6 5 2 6 -4 12 -2 12 4 0 6 -7
13 -15 16 -10 4 -15 20 -15 45 0 39 0 39 -39 39 -22 0 -41 -5 -44 -12 -3 -7
-3 5 0 28 4 29 1 45 -11 56 -9 9 -16 33 -16 52 0 33 -2 36 -29 36 -25 0 -29
-5 -38 -42 -8 -33 -11 11 -12 199 0 133 -5 253 -10 267 -6 13 -18 26 -28 29
-27 7 216 8 259 1z m4143 -18 l35 -15 0 -97 c0 -54 -3 -94 -7 -90 -4 4 -8 39
-8 79 0 70 -1 72 -25 73 -43 2 -46 4 -20 19 23 13 19 14 -45 8 -38 -3 -74 -9
-79 -14 -6 -5 -19 -9 -30 -9 -12 0 -45 -14 -75 -30 -30 -17 -58 -30 -64 -30
-17 0 -99 -85 -129 -135 -29 -49 -29 -49 -23 -15 3 19 7 42 8 51 2 9 11 28 20
43 22 33 13 33 -30 0 -40 -30 -44 -18 -5 17 128 117 369 190 477 145z m-5378
-52 c-3 -3 -12 -4 -19 -1 -8 3 -5 6 6 6 11 1 17 -2 13 -5z m4191 -31 c64 -30
95 -103 69 -163 -13 -29 -16 -31 -16 -12 -1 12 -6 22 -11 22 -6 0 -8 -10 -5
-23 4 -14 1 -28 -7 -34 -18 -15 -80 -24 -97 -14 -19 12 -1 20 39 16 48 -4 52
1 29 39 -14 24 -25 33 -38 29 -10 -2 -26 3 -35 12 -9 9 -23 14 -32 11 -8 -3
-12 -2 -9 4 3 6 19 10 36 10 16 0 29 5 29 10 0 6 -7 10 -16 10 -10 0 -14 6
-10 15 3 8 2 15 -2 16 -30 3 -60 11 -79 20 -18 10 -27 9 -47 -5 -37 -23 -43
-20 -16 9 48 51 142 63 218 28z m1202 -17 c0 -2 -8 -10 -17 -17 -16 -13 -17
-12 -4 4 13 16 21 21 21 13z m-4710 -46 c0 -5 -5 -10 -11 -10 -5 0 -7 5 -4 10
3 6 8 10 11 10 2 0 4 -4 4 -10z m2936 -21 c23 -8 24 -12 24 -121 0 -62 4 -118
8 -124 4 -7 44 -13 94 -15 47 -2 90 -8 95 -12 4 -5 10 -60 11 -122 l4 -113
-83 5 c-46 2 -88 5 -94 6 -15 3 -17 -155 -6 -388 11 -221 19 -261 61 -308 28
-31 30 -32 114 -32 l85 0 6 -40 c3 -22 8 -52 11 -67 3 -17 1 -28 -5 -28 -6 0
-11 8 -11 18 0 14 -2 15 -10 2 -7 -11 -8 -6 -4 17 6 31 6 31 -42 37 -27 4 -62
11 -79 17 -16 6 -40 11 -53 10 -19 -1 -22 3 -17 19 3 11 2 20 -4 20 -5 0 -13
10 -17 22 -6 21 -7 21 -20 4 -12 -17 -13 -14 -8 20 5 31 3 36 -6 24 -10 -12
-11 -11 -7 8 6 27 -1 52 -14 52 -5 0 -9 -8 -9 -17 0 -12 -5 -9 -15 11 -8 15
-15 38 -14 50 0 20 1 20 8 2 5 -13 10 -16 15 -8 7 12 -12 57 -21 48 -3 -3 -9
-20 -13 -38 l-8 -33 -1 37 c-1 20 4 40 9 43 6 3 10 17 10 31 0 22 -3 24 -55
24 -40 0 -56 4 -63 16 -7 12 -12 -6 -17 -62 -4 -43 -12 -85 -17 -91 -6 -7 -7
-34 -4 -63 3 -27 2 -50 -3 -50 -12 0 -19 68 -31 320 -6 124 -14 261 -18 305
l-7 80 -57 3 -58 3 0 68 c0 112 -10 161 -31 161 -11 0 -19 5 -19 11 0 8 28 10
87 8 l87 -4 -3 110 c-1 60 -7 118 -13 129 -10 18 -7 19 97 12 59 -4 118 -12
131 -17z m-2876 -24 c0 -8 -4 -15 -9 -15 -13 0 -22 16 -14 24 11 11 23 6 23
-9z m-970 -3 c0 -5 -9 -17 -20 -27 -19 -17 -19 -17 -7 9 12 25 27 35 27 18z
m4306 -82 c8 0 14 -5 14 -11 0 -12 -40 -2 -55 14 -7 7 -4 8 8 3 10 -3 25 -6
33 -6z m-3376 -12 c0 -7 -9 -24 -21 -38 l-20 -25 18 37 c19 41 23 45 23 26z
m4193 -50 c-8 -46 -13 -48 -13 -5 0 21 4 37 10 37 5 0 7 -14 3 -32z m220 -142
c12 -3 60 -6 107 -6 99 0 130 -14 123 -55 -3 -13 -9 -22 -14 -19 -5 3 -9 -3
-9 -13 0 -16 -6 -18 -37 -15 -34 4 -36 6 -15 13 13 5 28 7 33 3 5 -3 9 5 9 18
0 13 -4 19 -8 13 -4 -5 -16 -11 -27 -13 -15 -2 -17 -1 -6 6 7 6 12 15 9 22 -3
10 -8 9 -19 -2 -8 -9 -26 -18 -39 -22 -19 -5 -21 -5 -10 3 8 5 11 13 7 17 -3
4 -13 1 -22 -6 -11 -9 -18 -10 -29 -1 -7 6 -22 8 -31 4 -14 -5 -17 -3 -12 10
4 11 2 14 -7 11 -21 -8 -42 49 -36 98 l5 43 3 -51 c2 -44 6 -53 25 -58z m-233
64 c0 -16 -4 -30 -8 -30 -5 0 -7 14 -4 30 2 17 6 30 8 30 2 0 4 -13 4 -30z
m-602 -142 c2 -107 8 -255 26 -663 3 -59 2 -89 -3 -74 -8 24 -19 148 -28 309
-2 36 -5 88 -7 115 -2 28 -5 63 -5 78 -1 19 -5 26 -12 21 -9 -5 -10 6 -6 42 4
27 3 62 -1 78 -7 25 -9 26 -21 12 -18 -21 -37 -20 -45 2 -3 9 -9 23 -12 30 -4
8 4 12 25 12 22 0 31 5 31 16 0 13 -8 15 -35 12 -31 -4 -35 -2 -35 20 0 15 7
26 19 29 28 7 36 33 10 33 -11 0 -17 -4 -14 -10 3 -5 0 -7 -9 -4 -16 6 -30
-23 -32 -71 -1 -16 -6 -47 -12 -67 -9 -34 -8 -38 9 -38 12 0 16 -5 13 -15 -4
-8 -10 -13 -14 -10 -13 8 -20 -23 -20 -90 0 -35 -4 -67 -10 -70 -6 -4 -10 14
-11 47 -1 115 -10 305 -15 341 l-6 37 109 0 110 0 1 -122z m-1431 98 c178 -38
301 -164 332 -340 11 -58 16 -524 6 -514 -3 2 -5 64 -6 136 -1 73 -5 135 -10
138 -12 7 -11 57 2 91 7 19 7 29 0 31 -6 2 -11 22 -12 45 l-1 42 -8 -34 c-8
-36 -24 -51 -52 -51 -11 0 -18 8 -18 20 0 26 -17 26 -25 0 -4 -11 -10 -18 -15
-15 -9 6 -71 -23 -83 -39 -5 -6 -7 2 -4 18 5 31 -10 55 -31 48 -17 -5 -15 -22
3 -22 13 0 14 -4 5 -21 -9 -15 -18 -19 -38 -14 -20 4 -34 -1 -54 -20 -16 -14
-28 -28 -28 -31 0 -7 84 0 90 7 3 4 10 1 17 -6 10 -11 1 -13 -48 -13 -32 0
-62 4 -65 9 -8 13 -84 11 -84 -2 0 -6 15 -10 33 -9 58 3 53 -2 -8 -10 -35 -5
-65 -4 -72 1 -7 6 -12 6 -15 0 -1 -6 -28 -15 -58 -20 -30 -5 -45 -9 -33 -10
12 0 25 -6 29 -13 5 -8 -2 -9 -23 -5 -27 5 -32 3 -37 -18 -4 -14 -11 -25 -16
-25 -6 0 -6 7 1 18 8 12 7 25 -1 47 -11 29 -12 29 -26 10 -10 -14 -13 -32 -9
-58 5 -26 2 -45 -9 -62 -9 -14 -16 -45 -16 -75 0 -43 5 -56 28 -80 95 -94 360
-35 417 93 l13 32 1 -30 c1 -24 -9 -41 -46 -77 -27 -25 -59 -48 -73 -52 -14
-4 -50 -14 -80 -22 -35 -10 -79 -14 -122 -11 -64 5 -80 12 -116 50 -9 9 -21
17 -27 17 -7 0 -10 24 -9 63 1 74 7 100 22 105 18 6 15 52 -3 59 -9 3 -19 2
-23 -2 -4 -4 -1 -10 6 -12 14 -5 17 -33 3 -33 -5 0 -12 6 -14 13 -4 9 -8 8
-16 -3 -10 -13 -12 -13 -21 0 -13 20 -12 30 3 30 9 0 9 2 -1 9 -11 7 -11 11 2
24 18 17 22 57 6 57 -5 0 -10 -7 -10 -15 0 -19 -14 -19 -30 0 -12 14 -15 14
-32 -1 -18 -17 -18 -18 4 -42 l23 -25 -26 5 c-22 4 -26 2 -22 -16 3 -20 3 -19
-8 2 -15 27 -29 29 -29 3 0 -11 -4 -23 -10 -26 -5 -3 -10 1 -10 9 0 8 -5 18
-11 21 -7 5 -9 -5 -7 -26 2 -21 8 -33 16 -31 6 1 12 -2 12 -8 0 -5 -11 -10
-24 -10 -19 0 -22 -4 -18 -25 3 -17 0 -25 -10 -25 -12 0 -14 -14 -11 -77 3
-62 1 -73 -7 -53 -6 13 -11 61 -11 106 0 142 52 231 176 299 78 43 97 46 322
53 141 5 216 11 224 19 30 30 -33 119 -104 148 -24 10 -81 20 -132 22 -76 5
-108 1 -203 -22 -62 -16 -114 -26 -115 -24 -2 2 -24 37 -50 76 -35 53 -54 74
-75 79 -15 3 -31 7 -36 8 -4 1 9 14 30 28 40 28 129 59 224 77 30 6 64 13 75
15 49 9 266 4 322 -8z m2033 -7 c0 -20 -40 -36 -88 -34 -48 1 -51 0 -30 -11
l23 -13 -32 -13 c-18 -7 -33 -19 -33 -26 0 -9 -7 -12 -19 -9 -42 11 -70 -76
-36 -110 9 -9 26 -13 40 -10 14 2 25 0 25 -4 0 -5 -33 -9 -74 -9 l-73 0 -7 69
c-3 38 -3 77 0 85 3 9 2 16 -4 16 -5 0 -12 14 -15 30 -7 33 -19 37 -59 16 -16
-8 -28 -11 -28 -7 0 9 37 28 65 34 32 6 345 3 345 -4z m768 -41 c6 -6 12 -15
12 -20 0 -6 6 -24 14 -41 38 -87 57 -139 52 -144 -3 -3 -11 10 -19 28 -49 113
-68 149 -79 150 -69 2 -181 -1 -185 -5 -4 -3 -12 3 -20 14 -8 11 -21 20 -29
20 -8 0 -13 4 -10 8 7 11 248 2 264 -10z m655 -18 c10 0 15 -4 12 -10 -3 -6
-50 -10 -107 -10 -91 0 -100 -2 -105 -20 -3 -11 -9 -20 -13 -20 -4 0 -10 -17
-13 -37 -4 -21 -11 -56 -16 -78 -6 -22 -15 -61 -21 -87 -6 -27 -16 -48 -20
-48 -5 0 -5 12 0 28 4 15 16 72 25 127 29 170 24 164 160 159 44 -2 88 -3 98
-4z m-5286 -62 c-3 -7 -5 -2 -5 12 0 14 2 19 5 13 2 -7 2 -19 0 -25z m4118 22
c3 -5 1 -10 -4 -10 -6 0 -11 5 -11 10 0 6 2 10 4 10 3 0 8 -4 11 -10z m45 -15
c10 -13 9 -15 -8 -15 -15 0 -20 5 -16 15 4 8 7 15 9 15 1 0 8 -7 15 -15z m176
-84 l7 -74 -24 6 c-13 4 -60 7 -103 7 -44 0 -76 3 -73 7 4 3 45 5 92 4 53 -1
85 2 85 9 0 5 -18 10 -40 10 -38 0 -39 1 -22 18 13 13 18 14 20 4 6 -23 37 -8
37 18 0 15 -5 24 -12 23 -7 -2 -13 2 -13 7 0 6 5 10 10 10 6 0 10 10 10 22 0
51 19 -2 26 -71z m-56 47 c0 -19 -2 -20 -10 -8 -13 19 -13 30 0 30 6 0 10 -10
10 -22z m-20 -13 c0 -11 -11 -15 -40 -15 -29 0 -40 4 -40 15 0 11 11 15 40 15
29 0 40 -4 40 -15z m-1080 -66 c0 -11 5 -19 10 -19 6 0 10 -9 10 -20 0 -11 -7
-20 -15 -20 -8 0 -15 7 -15 15 0 9 -7 29 -15 44 -14 27 -13 29 5 24 11 -3 20
-14 20 -24z m37 -1 c-3 -8 -6 -5 -6 6 -1 11 2 17 5 13 3 -3 4 -12 1 -19z m910
-14 c-3 -3 -12 -4 -19 -1 -8 3 -5 6 6 6 11 1 17 -2 13 -5z m596 -29 c4 -8 2
-17 -3 -20 -6 -4 -10 3 -10 14 0 25 6 27 13 6z m-679 -11 c3 -8 2 -12 -4 -9
-6 3 -10 10 -10 16 0 14 7 11 14 -7z m-5145 -86 c23 -162 73 -270 167 -357 79
-74 157 -105 264 -106 78 0 105 8 203 57 33 16 61 28 63 25 6 -6 -159 -87
-178 -87 -8 0 -20 -6 -26 -13 -14 -17 -105 -13 -184 8 -5 2 -18 3 -30 4 -19 1
-20 3 -8 11 13 8 12 10 -3 10 -10 0 -30 8 -45 17 -39 24 -142 132 -142 149 0
8 -4 14 -8 14 -11 0 -51 92 -67 155 -15 55 -31 195 -22 195 2 0 10 -37 16 -82z
m1324 37 c10 -14 15 -25 12 -25 -6 0 -45 38 -45 45 0 12 17 2 33 -20z m3824
-202 c-1 -43 -3 -8 -3 77 0 85 2 120 3 78 2 -43 2 -113 0 -155z m703 201 c0
-8 5 -22 10 -32 20 -33 90 -215 89 -231 0 -9 -9 7 -20 34 -11 28 -24 59 -29
70 -5 11 -14 37 -21 58 -7 20 -17 37 -21 37 -5 0 -8 6 -7 13 1 6 -3 25 -9 40
-15 35 -15 40 -2 32 6 -3 10 -13 10 -21z m-4483 -26 c-3 -8 -6 -5 -6 6 -1 11
2 17 5 13 3 -3 4 -12 1 -19z m0 -150 c-2 -13 -4 -3 -4 22 0 25 2 35 4 23 2
-13 2 -33 0 -45z m1855 10 c2 -20 0 -34 -4 -32 -4 3 -8 24 -7 47 1 47 6 41 11
-15z m968 38 c0 -8 -4 -18 -10 -21 -5 -3 -10 3 -10 14 0 12 5 21 10 21 6 0 10
-6 10 -14z m757 -8 c-3 -8 -6 -5 -6 6 -1 11 2 17 5 13 3 -3 4 -12 1 -19z
m-1827 -34 c0 -2 -9 -4 -20 -4 -11 0 -20 4 -20 9 0 5 9 7 20 4 11 -3 20 -7 20
-9z m-300 -58 c0 -3 -4 -8 -10 -11 -5 -3 -10 -1 -10 4 0 6 5 11 10 11 6 0 10
-2 10 -4z m63 -13 c-7 -2 -19 -2 -25 0 -7 3 -2 5 12 5 14 0 19 -2 13 -5z
m-115 -10 c-10 -2 -26 -2 -35 0 -10 3 -2 5 17 5 19 0 27 -2 18 -5z m252 -58
c0 -30 -4 -55 -10 -55 -11 0 -14 69 -4 94 11 27 14 18 14 -39z m3020 -30 c0
-8 -4 -15 -10 -15 -5 0 -7 7 -4 15 4 8 8 15 10 15 2 0 4 -7 4 -15z m-3560 -5
c0 -5 -6 -10 -14 -10 -8 0 -18 5 -21 10 -3 6 3 10 14 10 12 0 21 -4 21 -10z
m1153 -11 c-12 -4 -26 -16 -32 -26 -9 -16 -10 -16 -11 -1 0 34 10 45 37 40 26
-5 26 -6 6 -13z m554 -31 c-2 -13 -4 -5 -4 17 -1 22 1 32 4 23 2 -10 2 -28 0
-40z m-1777 22 c0 -5 -4 -10 -9 -10 -6 0 -13 5 -16 10 -3 6 1 10 9 10 9 0 16
-4 16 -10z m3620 -15 c0 -8 -7 -15 -15 -15 -16 0 -20 12 -8 23 11 12 23 8 23
-8z m-5248 -57 c12 -29 48 -104 80 -167 32 -63 55 -117 51 -120 -3 -3 -8 0
-10 7 -3 6 -11 12 -18 12 -8 0 -11 7 -8 20 3 11 0 20 -6 20 -6 0 -11 7 -11 15
0 8 -4 23 -10 33 -5 9 -14 28 -20 42 -5 14 -14 32 -18 40 -23 40 -42 83 -42
92 0 18 -30 40 -48 34 -14 -5 -13 -3 2 9 29 22 33 20 58 -37z m1712 6 c3 -8 2
-12 -4 -9 -6 3 -10 10 -10 16 0 14 7 11 14 -7z m1893 -146 c-2 -13 -4 -5 -4
17 -1 22 1 32 4 23 2 -10 2 -28 0 -40z m-2061 -75 c-6 -6 -36 58 -35 76 0 9 9
-4 20 -28 11 -24 18 -46 15 -48z m1233 12 c0 -5 -4 -3 -9 5 -5 8 -9 22 -9 30
0 16 17 -16 18 -35z m374 -22 c-7 -2 -19 -2 -25 0 -7 3 -2 5 12 5 14 0 19 -2
13 -5z m-666 -75 c-2 -13 -4 -5 -4 17 -1 22 1 32 4 23 2 -10 2 -28 0 -40z
m-857 22 c0 -5 -2 -10 -4 -10 -3 0 -8 5 -11 10 -3 6 -1 10 4 10 6 0 11 -4 11
-10z m-402 -24 c92 -5 69 -16 -36 -16 -102 0 -132 5 -132 22 0 5 24 7 58 3 31
-3 81 -7 110 -9z m305 -132 c20 -4 37 -11 37 -15 0 -5 -17 -9 -37 -9 -73 0
-140 -26 -183 -69 -23 -23 -35 -41 -28 -41 7 0 26 14 42 30 52 53 85 62 224
61 176 -1 312 -14 312 -30 0 -5 -10 -11 -22 -14 -13 -3 -41 -10 -63 -16 -22
-6 -94 -12 -160 -12 -66 -1 -109 -4 -95 -6 14 -3 31 -10 39 -16 11 -9 15 -9
18 1 7 19 24 14 50 -15 15 -16 27 -22 31 -16 9 14 162 29 162 16 0 -5 21 -9
48 -8 58 3 75 -3 67 -23 -3 -8 0 -19 7 -24 24 -14 38 -8 38 17 0 23 4 25 40
25 32 0 40 -4 40 -18 0 -18 20 -32 65 -47 34 -11 168 -17 174 -7 9 13 81 23
81 10 0 -6 18 -9 45 -6 37 2 46 0 51 -15 4 -14 9 -16 19 -7 16 13 35 5 35 -15
0 -9 11 -13 38 -10 20 1 31 1 25 -2 -24 -9 -13 -25 12 -21 14 3 28 1 31 -3 3
-5 18 -9 35 -9 16 0 29 -4 29 -10 0 -5 16 -12 35 -16 19 -3 38 -10 41 -15 7
-13 82 -11 86 2 2 7 17 7 48 0 59 -14 107 -14 112 0 2 6 56 13 134 16 112 5
132 4 146 -11 9 -9 21 -16 27 -16 15 0 14 77 -1 83 -10 4 -10 6 0 6 7 1 17
-11 22 -25 6 -14 14 -23 19 -19 5 3 22 -6 38 -20 l28 -24 -25 -1 -25 0 28 -24
c23 -20 29 -36 37 -97 5 -41 10 -120 10 -176 0 -62 4 -103 10 -103 6 0 11 62
12 163 1 105 3 140 7 99 3 -34 11 -62 16 -62 29 1 29 -495 0 -616 -8 -34 -27
-88 -42 -119 -21 -46 -28 -54 -33 -39 -6 17 -8 17 -19 -5 -19 -35 -23 -19 -5
18 15 30 17 31 30 14 16 -22 18 -14 3 23 -7 21 -7 35 4 58 30 63 35 105 37
271 1 209 -17 217 -23 10 -3 -118 -22 -256 -38 -268 -2 -2 -15 -12 -29 -21
-25 -18 -25 -18 -2 -11 l24 7 -19 -29 c-27 -42 -53 -69 -53 -54 0 7 -4 10 -10
6 -5 -3 -7 -11 -5 -18 10 -27 -43 -66 -92 -68 -23 -2 -24 -2 -5 -6 12 -2 22
-7 22 -11 -1 -15 -26 -39 -48 -46 -12 -4 -20 -11 -17 -16 3 -4 -5 -6 -17 -2
-14 3 -19 1 -14 -6 9 -15 -12 -54 -25 -47 -9 6 -13 -13 -10 -55 1 -20 0 -22
-10 -10 -8 12 -9 6 -5 -23 6 -43 -9 -41 -19 3 -4 16 -11 32 -16 35 -5 4 -9 13
-9 21 0 8 -8 33 -19 57 -10 23 -24 57 -31 74 -15 40 -52 52 -160 54 -68 2 -71
3 -30 9 l45 7 -42 1 c-24 1 -43 7 -43 12 0 6 28 9 72 8 50 -2 73 1 75 10 3 6
8 12 13 12 12 0 80 70 80 82 0 6 9 8 20 5 13 -3 25 2 33 13 7 10 21 19 31 21
10 2 22 11 26 19 60 130 75 174 90 265 7 39 10 86 8 105 l-4 35 -8 -30 c-23
-89 -31 -115 -37 -115 -4 0 -9 -10 -13 -22 -7 -29 -79 -104 -119 -125 -28 -14
-67 -16 -277 -15 -254 2 -797 18 -885 27 -85 8 -122 24 -164 67 -60 63 -73
123 -73 334 -1 96 -5 174 -10 174 -4 0 -5 12 -2 26 7 29 -1 28 -38 -4 -19 -16
-23 -10 -19 28 1 10 -1 11 -6 4 -4 -6 -17 -14 -28 -19 -19 -8 -19 -9 3 -13 13
-2 22 -7 20 -10 -2 -4 -10 -19 -17 -34 -8 -16 -23 -28 -35 -29 -15 -1 -17 -3
-5 -6 18 -4 22 -53 6 -64 -4 -3 -11 -66 -14 -140 -4 -100 -8 -136 -19 -142
-20 -11 -17 -37 4 -37 14 0 17 -8 17 -40 0 -37 -2 -40 -27 -40 -26 0 -28 3
-28 40 l0 41 -35 -7 c-19 -3 -51 -3 -70 0 -33 7 -35 9 -35 46 0 29 4 40 15 40
20 0 21 76 1 83 -7 3 -16 22 -20 41 -5 27 -12 36 -26 36 -18 0 -20 7 -20 70 0
38 -5 92 -11 121 -8 38 -8 58 0 76 9 19 9 29 0 39 -9 11 -9 20 2 40 11 22 11
27 -1 34 -10 6 -15 25 -13 60 1 38 -3 50 -14 50 -8 0 -12 -4 -9 -8 2 -4 0 -14
-5 -22 -8 -13 -12 -12 -26 5 -13 16 -15 17 -10 3 4 -12 1 -18 -8 -18 -8 0 -15
-6 -16 -12 0 -10 -2 -10 -6 0 -8 21 -26 13 -20 -9 4 -13 -3 -30 -16 -45 -17
-20 -25 -48 -34 -127 l-11 -102 2 105 c4 165 54 269 184 383 45 41 145 57 245
41z m965 -69 c51 -11 38 -25 -24 -25 -41 0 -54 -3 -49 -12 4 -7 0 -5 -8 5 -8
10 -28 17 -48 17 l-34 0 25 15 c25 14 70 14 138 0z m2241 -5 c40 -12 106 -25
145 -29 49 -6 59 -9 31 -10 -60 -2 -224 27 -248 44 -28 20 -16 19 72 -5z m355
-31 c-12 -13 -30 -19 -60 -19 -63 0 -63 17 0 24 37 5 57 13 61 24 5 12 9 13
12 4 3 -7 -3 -22 -13 -33z m-3219 -9 c-27 -12 -43 -12 -25 0 8 5 22 9 30 9 10
0 8 -3 -5 -9z m1540 -160 c3 -5 1 -10 -4 -10 -6 0 -11 5 -11 10 0 6 2 10 4 10
3 0 8 -4 11 -10z m132 -197 c-3 -10 -5 -4 -5 12 0 17 2 24 5 18 2 -7 2 -21 0
-30z m10 -45 c-3 -8 -6 -5 -6 6 -1 11 2 17 5 13 3 -3 4 -12 1 -19z m-1990
-160 c-3 -8 -6 -5 -6 6 -1 11 2 17 5 13 3 -3 4 -12 1 -19z m-239 -71 c2 -10
-3 -17 -12 -17 -10 0 -16 9 -16 21 0 24 23 21 28 -4z m115 -254 c-13 -2 -33
-2 -45 0 -13 2 -3 4 22 4 25 0 35 -2 23 -4z m104 -100 c-3 -10 -5 -4 -5 12 0
17 2 24 5 18 2 -7 2 -21 0 -30z m-67 -3 c0 -11 6 -20 14 -20 19 0 23 -17 18
-72 -4 -43 -7 -48 -28 -48 -17 0 -24 6 -24 19 0 10 -3 46 -6 80 -6 52 -5 61
10 61 9 0 16 -8 16 -20z m162 -115 c0 -5 -5 -11 -11 -13 -6 -2 -11 4 -11 13 0
9 5 15 11 13 6 -2 11 -8 11 -13z m-204 -42 c6 -19 -33 -16 -49 3 -11 14 -9 15
16 12 16 -1 30 -9 33 -15z m-38 -27 c0 -3 -4 -8 -10 -11 -5 -3 -10 -1 -10 4 0
6 5 11 10 11 6 0 10 -2 10 -4z m1580 -6 c0 -5 -5 -10 -11 -10 -5 0 -7 5 -4 10
3 6 8 10 11 10 2 0 4 -4 4 -10z m-1453 -36 c-3 -3 -12 -4 -19 -1 -8 3 -5 6 6
6 11 1 17 -2 13 -5z m1400 0 c-3 -3 -12 -4 -19 -1 -8 3 -5 6 6 6 11 1 17 -2
13 -5z m-1697 -39 c7 -9 8 -15 2 -15 -5 0 -12 7 -16 15 -3 8 -4 15 -2 15 2 0
9 -7 16 -15z m1153 -2 c-7 -2 -21 -2 -30 0 -10 3 -4 5 12 5 17 0 24 -2 18 -5z
m274 1 c-3 -3 -12 -4 -19 -1 -8 3 -5 6 6 6 11 1 17 -2 13 -5z m789 -26 c-14
-23 -21 -23 -23 1 -1 13 4 19 16 18 15 -1 17 -4 7 -19z m-2161 -8 c8 -13 -5
-13 -25 0 -13 8 -13 10 2 10 9 0 20 -4 23 -10z m1899 -316 c6 -24 2 -43 -8
-33 -11 10 -17 59 -8 59 5 0 13 -12 16 -26z m23 -76 c-3 -8 -6 -5 -6 6 -1 11
2 17 5 13 3 -3 4 -12 1 -19z m3308 -1358 c15 -7 10 -9 -22 -9 -62 -1 -87 -29
-79 -87 3 -24 1 -46 -4 -49 -5 -3 -12 15 -15 39 -8 49 7 80 47 103 27 14 45
15 73 3z m53 -60 c2 -45 -1 -54 -27 -80 -30 -30 -83 -41 -96 -20 -4 6 10 10
34 10 46 0 71 26 71 73 0 25 -3 27 -22 21 l-23 -6 24 26 c14 14 27 26 30 26 3
0 7 -23 9 -50z m160 28 c7 -7 12 -16 12 -21 0 -5 -7 -1 -16 7 -37 38 -72 8
-66 -56 2 -19 32 -31 56 -22 21 8 21 31 -1 37 -11 3 -7 5 10 6 31 1 36 -18 11
-43 -50 -50 -120 22 -82 84 14 22 57 27 76 8z m209 -80 c-2 -18 -4 -4 -4 32 0
36 2 50 4 33 2 -18 2 -48 0 -65z m-43 46 c19 -18 20 -28 6 -55 -13 -23 -43
-25 -61 -3 -20 25 -19 43 4 59 27 19 32 19 51 -1z m-91 -1 c-16 -3 -23 -13
-26 -36 -4 -31 -4 -31 -5 6 -2 34 0 37 26 36 22 -1 23 -2 5 -6z m178 -11 c-6
-11 -6 -24 0 -33 5 -7 9 -18 8 -24 0 -5 -6 1 -13 15 -13 22 -7 60 10 60 2 0 0
-8 -5 -18z"/>
<path d="M4342 6608 c-16 -21 -42 -141 -42 -197 0 -77 25 -163 77 -270 39 -79
61 -109 136 -184 l89 -88 -7 -42 c-4 -23 -19 -80 -35 -127 -39 -117 -42 -134
-26 -155 26 -36 88 3 246 154 36 35 73 67 83 72 10 6 63 7 130 3 137 -8 221 6
297 48 60 33 164 135 173 168 3 11 4 20 3 20 -1 0 -27 -25 -58 -55 -32 -30
-79 -65 -105 -78 -94 -48 -220 -60 -328 -31 l-60 15 -80 -84 c-94 -97 -190
-177 -214 -177 -9 0 -26 6 -36 14 -19 14 -19 16 5 97 13 46 27 91 31 99 4 8
12 33 18 55 23 88 23 94 -2 118 -172 162 -201 199 -237 294 -25 67 -43 180
-38 244 1 27 -1 49 -6 49 -4 0 -6 11 -4 25 6 28 5 30 -10 13z"/>
<path d="M4568 6503 c-5 -67 32 -134 101 -182 43 -29 71 -37 230 -67 13 -3 44
-25 69 -49 47 -46 60 -52 78 -36 5 4 32 14 59 20 56 14 146 62 127 69 -7 2
-18 -1 -25 -6 -16 -14 -181 -45 -185 -35 -1 5 -15 31 -31 59 l-29 50 -59 2
c-141 5 -202 19 -188 42 3 6 -1 7 -10 4 -16 -7 -75 46 -75 67 0 5 -5 9 -11 9
-5 0 -17 16 -25 35 -16 39 -23 44 -26 18z"/>
<path d="M6682 6300 c0 -14 2 -19 5 -12 2 6 2 18 0 25 -3 6 -5 1 -5 -13z"/>
<path d="M3818 5933 c7 -3 16 -2 19 1 4 3 -2 6 -13 5 -11 0 -14 -3 -6 -6z"/>
<path d="M2475 5150 c3 -5 11 -10 16 -10 6 0 7 5 4 10 -3 6 -11 10 -16 10 -6
0 -7 -4 -4 -10z"/>
<path d="M2590 5150 c0 -5 5 -10 10 -10 6 0 10 5 10 10 0 6 -4 10 -10 10 -5 0
-10 -4 -10 -10z"/>
<path d="M2858 5123 c7 -3 16 -2 19 1 4 3 -2 6 -13 5 -11 0 -14 -3 -6 -6z"/>
<path d="M3430 4785 c0 -8 7 -15 15 -15 8 0 15 7 15 15 0 8 -7 15 -15 15 -8 0
-15 -7 -15 -15z"/>
<path d="M3760 4520 c0 -6 7 -10 15 -10 8 0 15 2 15 4 0 2 -7 6 -15 10 -8 3
-15 1 -15 -4z"/>
<path d="M4320 3993 c0 -31 16 -37 40 -13 11 11 25 20 30 20 6 0 10 3 10 8 0
4 -18 7 -40 7 -35 0 -40 -3 -40 -22z"/>
<path d="M4220 3974 c0 -14 4 -23 10 -19 6 3 10 15 10 26 0 10 -4 19 -10 19
-5 0 -10 -12 -10 -26z"/>
<path d="M5850 4210 c0 -11 5 -20 10 -20 6 0 10 9 10 20 0 11 -4 20 -10 20 -5
0 -10 -9 -10 -20z"/>
<path d="M5932 4090 c-17 -28 -15 -31 12 -19 14 7 22 17 19 25 -7 19 -16 17
-31 -6z"/>
<path d="M5840 4055 c0 -14 5 -25 10 -25 6 0 10 4 10 9 0 5 3 16 6 25 4 11 1
16 -10 16 -10 0 -16 -9 -16 -25z"/>
<path d="M6026 4053 c10 -40 14 -41 14 -5 0 18 -5 32 -10 32 -6 0 -8 -11 -4
-27z"/>
<path d="M6495 4640 c-3 -5 -1 -18 4 -27 9 -16 10 -14 11 10 0 28 -5 34 -15
17z"/>
<path d="M4968 4243 c7 -3 16 -2 19 1 4 3 -2 6 -13 5 -11 0 -14 -3 -6 -6z"/>
<path d="M4780 4210 c-10 -6 -2 -7 25 -3 49 7 58 13 19 13 -16 0 -36 -5 -44
-10z"/>
<path d="M4785 4190 c-16 -7 -17 -9 -3 -9 9 -1 20 4 23 9 7 11 7 11 -20 0z"/>
<path d="M5120 4191 c0 -6 19 -9 41 -9 27 0 37 3 28 9 -19 12 -69 11 -69 0z"/>
<path d="M4826 4181 c5 -5 20 -12 34 -16 24 -7 24 -7 5 9 -21 16 -56 23 -39 7z"/>
<path d="M4719 4163 c-12 -16 -12 -17 1 -7 8 6 22 14 30 17 13 5 12 6 -1 6 -9
1 -23 -7 -30 -16z"/>
<path d="M5008 4143 c6 -2 18 -2 25 0 6 3 1 5 -13 5 -14 0 -19 -2 -12 -5z"/>
<path d="M7058 4643 c7 -3 16 -2 19 1 4 3 -2 6 -13 5 -11 0 -14 -3 -6 -6z"/>
<path d="M7021 4613 c-16 -17 -11 -25 8 -14 7 5 12 13 10 19 -2 6 -10 4 -18
-5z"/>
<path d="M7003 4566 c-11 -13 -11 -91 1 -103 7 -7 7 -5 9 65 1 28 2 52 2 52 0
-1 -5 -7 -12 -14z"/>
<path d="M7033 4525 c0 -22 2 -30 4 -17 2 12 2 30 0 40 -3 9 -5 -1 -4 -23z"/>
<path d="M7025 4470 c3 -5 8 -10 11 -10 2 0 4 5 4 10 0 6 -5 10 -11 10 -5 0
-7 -4 -4 -10z"/>
<path d="M4845 3390 l-40 -7 37 -2 c20 0 40 4 43 9 3 6 5 9 3 9 -2 -1 -21 -5
-43 -9z"/>
<path d="M4738 3383 c12 -2 30 -2 40 0 9 3 -1 5 -23 4 -22 0 -30 -2 -17 -4z"/>
<path d="M4749 3093 l-24 -28 30 25 c17 14 32 26 34 28 2 1 0 2 -6 2 -5 0 -20
-12 -34 -27z"/>
<path d="M6160 3110 c0 -5 7 -10 15 -10 8 0 15 5 15 10 0 6 -7 10 -15 10 -8 0
-15 -4 -15 -10z"/>
<path d="M6095 3100 c-4 -6 7 -10 27 -10 25 0 29 3 18 10 -19 13 -37 13 -45 0z"/>
<path d="M6168 3073 c6 -2 18 -2 25 0 6 3 1 5 -13 5 -14 0 -19 -2 -12 -5z"/>
<path d="M6237 3039 c7 -7 15 -10 18 -7 3 3 -2 9 -12 12 -14 6 -15 5 -6 -5z"/>
<path d="M4640 3030 c0 -5 5 -10 11 -10 5 0 7 5 4 10 -3 6 -8 10 -11 10 -2 0
-4 -4 -4 -10z"/>
<path d="M4510 2600 c0 -22 5 -40 10 -40 6 0 10 18 10 40 0 22 -4 40 -10 40
-5 0 -10 -18 -10 -40z"/>
<path d="M4560 2610 c0 -16 2 -30 4 -30 2 0 6 14 8 30 3 17 1 30 -4 30 -4 0
-8 -13 -8 -30z"/>
<path d="M6630 2357 c0 -13 -9 -50 -20 -82 -23 -68 -25 -87 -5 -61 8 10 12 23
8 29 -3 5 -1 12 6 16 11 7 28 121 17 121 -3 0 -6 -11 -6 -23z"/>
<path d="M6425 2120 c3 -5 8 -10 11 -10 2 0 4 5 4 10 0 6 -5 10 -11 10 -5 0
-7 -4 -4 -10z"/>
<path d="M6033 2113 c9 -2 23 -2 30 0 6 3 -1 5 -18 5 -16 0 -22 -2 -12 -5z"/>
<path d="M6160 2064 c0 -8 5 -12 10 -9 6 3 10 10 10 16 0 5 -4 9 -10 9 -5 0
-10 -7 -10 -16z"/>
<path d="M6190 1991 c0 -6 5 -13 10 -16 6 -3 10 1 10 9 0 9 -4 16 -10 16 -5 0
-10 -4 -10 -9z"/>
<path d="M6231 1914 c0 -11 3 -14 6 -6 3 7 2 16 -1 19 -3 4 -6 -2 -5 -13z"/>
<path d="M9947 253 c-13 -12 -7 -44 8 -49 22 -9 44 13 38 36 -5 19 -33 27 -46
13z"/>
<path d="M2800 7530 c0 -5 9 -10 21 -10 11 0 17 5 14 10 -3 6 -13 10 -21 10
-8 0 -14 -4 -14 -10z"/>
<path d="M7191 7134 c0 -11 3 -14 6 -6 3 7 2 16 -1 19 -3 4 -6 -2 -5 -13z"/>
<path d="M7220 7130 c0 -5 5 -10 11 -10 5 0 7 5 4 10 -3 6 -8 10 -11 10 -2 0
-4 -4 -4 -10z"/>
<path d="M3930 7040 c-9 -6 -10 -10 -3 -10 6 0 15 5 18 10 8 12 4 12 -15 0z"/>
<path d="M6385 6900 c3 -5 8 -10 11 -10 2 0 4 5 4 10 0 6 -5 10 -11 10 -5 0
-7 -4 -4 -10z"/>
<path d="M3140 6749 c0 -5 5 -7 10 -4 6 3 10 8 10 11 0 2 -4 4 -10 4 -5 0 -10
-5 -10 -11z"/>
<path d="M2978 6363 c12 -2 30 -2 40 0 9 3 -1 5 -23 4 -22 0 -30 -2 -17 -4z"/>
<path d="M3128 6343 c6 -2 18 -2 25 0 6 3 1 5 -13 5 -14 0 -19 -2 -12 -5z"/>
<path d="M3188 6333 c12 -2 30 -2 40 0 9 3 -1 5 -23 4 -22 0 -30 -2 -17 -4z"/>
<path d="M3295 6319 c22 -4 51 -8 65 -7 16 0 11 3 -15 9 -22 4 -51 8 -65 7
-16 0 -11 -3 15 -9z"/>
<path d="M3403 6303 c9 -2 25 -2 35 0 9 3 1 5 -18 5 -19 0 -27 -2 -17 -5z"/>
</g>
</svg>
